PathFileType	4	(X/Y/Z)	C:/Users/beibeiliu/ov580/test_trc/User2\sequence.36_training_dense_right.trc
DataRate	CameraRate	NumFrames	NumMarkers	Units	OrigDataRate	OrigDataStartFrame	OrigNumFrames
120	120	18	19	mm	120	126	500
Frame#	Time	ThumbCMC			ThumbMCP			ThumbIP			ThumbTip			IndexMCP			IndexPIP			IndexTip			MiddleMCP			MiddlePIP			MiddleTip			RingMCP			RingPIP			RingTip			PinkyMCP			PinkyPIP			PinkyTip			BackHand1			BackHand2			BackHand3	
		X0	Y0	Z0	X1	Y1	Z1	X2	Y2	Z2	X3	Y3	Z3	X4	Y4	Z4	X5	Y5	Z5	X6	Y6	Z6	X7	Y7	Z7	X8	Y8	Z8	X9	Y9	Z9	X10	Y10	Z10	X11	Y11	Z11	X12	Y12	Z12	X13	Y13	Z13	X14	Y14	Z14	X15	Y15	Z15	X16	Y16	Z16	X17	Y17	Z17	X18	Y18	Z18	
125	1.04167	110.775	-6.28318	58.4775	81.2593	11.833	35.7489	51.9327	12.0055	19.0004	26.9111	-2.88634	9.39343	87.2439	-45.5424	-10.6112	63.5397	-37.6048	-32.534	37.2116	-12.7423	-23.4567	65.973	-63.8922	-5.99301	36.7251	-44.9316	-25.2188	19.1143	-14.3224	-4.42559	49.9328	-69.0521	6.0294	21.6683	-52.9702	-4.63105	15.9394	-23.1051	4.43764	41.1853	-71.503	31.3615	18.1371	-58.6137	15.3719	8.81836	-29.2105	19.1042	86.4748	-76.0938	57.2427	103.029	-69.7739	86.6788	118.65	-48.5025	54.4453	
126	1.05	109.136	-8.32342	57.8272	82.8855	9.60938	37.1562	52.4631	11.3692	16.3673	28.992	-1.83264	11.2905	86.8597	-46.3978	-10.9202	57.5803	-39.8291	-30.231	34.5495	-16.9525	-20.9542	62.5883	-64.9968	-7.10475	33.5675	-47.0375	-21.3339	18.0431	-16.8403	-3.12182	44.8117	-71.7309	8.05395	22.8251	-53.9122	-3.719	12.7358	-21.4606	9.90696	37.6884	-73.5587	33.4901	12.6588	-56.6088	19.0726	9.25655	-25.6685	22.2409	87.1707	-74.6606	56.5703	101.656	-72.6782	88.805	118.543	-52.2847	53.9619	
127	1.05833	110.432	-8.85231	56.8852	81.9534	5.47797	36.4804	53.6245	11.2122	18.5521	28.4813	-2.47054	10.0628	82.0004	-50.438	-8.94307	58.2932	-39.0016	-31.5844	35.6063	-13.6364	-21.2644	64.1521	-63.2557	-6.3017	31.3306	-46.0709	-19.0263	18.3968	-12.9728	-2.11389	46.8931	-69.449	8.38414	18.9994	-50.8444	-1.93925	13.1966	-22.0612	11.801	33.6139	-74.2189	30.9545	12.3934	-51.2949	18.9538	8.34536	-22.5709	26.2147	83.3017	-75.5643	58.1021	103.658	-68.7567	90.4619	115.931	-52.3571	59.0857	
128	1.06667	112.825	-6.17668	57.2277	84.5409	8.77445	38.5677	53.4424	10.5867	18.2339	26.1494	-2.54403	7.81255	83.351	-49.3676	-10.8237	58.7352	-43.1692	-28.2961	36.5201	-16.8761	-20.6503	64.1132	-62.8771	-2.9937	32.7932	-44.3261	-21.1613	18.8742	-11.1988	-2.1475	45.3306	-69.1899	7.37524	20.1107	-49.8474	-2.06562	17.005	-17.6561	13.2858	32.2324	-72.9519	32.7849	14.4565	-53.064	18.671	12.9094	-23.9665	25.4719	82.3042	-74.7647	57.5844	101.718	-72.8421	89.1594	116.288	-52.0584	59.1731	
129	1.075	109.732	-9.40941	56.5923	83.692	7.71478	35.5106	53.9563	13.0999	15.6493	27.2781	1.3303	8.32474	79.2661	-51.3206	-10.9144	58.6576	-40.6941	-30.1216	36.2233	-15.29	-20.0543	61.5784	-63.0317	-6.9959	30.2713	-45.258	-19.153	20.1079	-9.46978	-3.38688	45.3288	-68.5979	9.91281	20.896	-52.6745	-0.942551	16.1998	-17.2842	15.2843	37.178	-70.0664	34.5933	10.1734	-49.3691	21.5577	9.09734	-20.7234	30.1973	83.6048	-73.9711	58.9555	102.853	-68.8946	90.0706	117.498	-52.5457	56.5914	
130	1.08333	111.32	-9.36209	58.6232	83.1046	9.77716	33.1618	52.8022	9.85198	15.471	28.0236	-0.854967	10.365	81.6605	-49.5762	-9.25718	59.3889	-38.87	-30.1143	34.8773	-16.1268	-18.6435	57.6983	-64.1594	-4.52119	30.3968	-43.3973	-18.5923	18.5323	-12.8979	-3.54285	42.9454	-68.4835	10.9497	19.9275	-48.5315	-0.529479	16.1929	-14.9742	14.863	35.9293	-68.8869	31.7391	12.2402	-52.9585	21.0032	8.63414	-19.4407	26.5461	85.3069	-73.3578	57.6172	98.9616	-71.6532	90.8108	114.876	-52.575	56.6915	
131	1.09167	109.842	-10.3107	56.3391	85.2418	10.176	37.6605	52.061	12.5147	14.7984	28.4645	0.755705	9.73897	84.9618	-46.7324	-9.35042	59.0443	-39.8719	-30.0031	38.5503	-12.3347	-20.6987	61.8162	-63.0314	-1.23573	30.5534	-42.9154	-18.8375	16.7359	-12.0873	0.0826406	44.4148	-68.0594	13.0584	20.3803	-49.3046	-0.899532	15.0291	-15.9066	15.652	36.1326	-70.5147	33.3892	12.965	-49.2236	19.4265	7.34188	-21.2915	25.792	85.4297	-71.8071	60.1156	100.287	-72.9745	86.0977	114.586	-53.7917	54.6838	
132	1.1	113.912	-5.71833	58.1385	85.7044	11.5626	36.1074	52.8679	11.975	13.6141	29.5395	-2.27931	12.0151	81.1168	-49.3925	-6.1513	56.3993	-41.2746	-26.9681	36.6417	-8.26644	-18.6131	64.711	-62.2883	-4.01825	30.7579	-44.4696	-19.5126	17.4905	-14.6487	-2.82427	44.1748	-67.8344	11.4932	22.1808	-51.5214	-2.06411	16.4853	-15.9837	10.7778	37.4459	-70.5986	36.1911	14.1933	-48.6976	17.7407	11.9948	-21.915	24.8465	84.8516	-74.953	61.3004	99.5453	-72.0008	91.2953	118.648	-53.0986	58.3244	
133	1.10833	114.507	-6.03831	56.9421	82.9383	6.53046	34.4998	54.483	8.99606	18.0553	29.1646	-3.44899	12.7521	83.0117	-48.8129	-11.1889	56.986	-38.7271	-28.8089	34.5562	-11.9835	-16.1246	60.082	-64.8191	-3.13884	36.1519	-47.3736	-21.4615	18.4099	-14.9601	-3.65964	44.6672	-69.9433	13.1033	20.0733	-54.1719	-0.990951	12.0503	-21.2238	9.97044	34.2069	-71.6927	34.278	11.4995	-49.8486	17.931	12.0589	-23.6391	22.0201	83.2276	-72.5754	60.2136	101.985	-70.4484	85.4651	117.65	-51.8004	55.9634	
134	1.11667	112.658	-10.4785	57.9886	84.6356	6.84486	36.8998	52.3095	10.9645	13.4971	27.2055	-5.20783	9.71603	81.9051	-52.0067	-8.4849	59.6243	-40.7947	-30.7428	37.0671	-11.7036	-19.8059	64.2096	-65.3891	-5.81265	34.0376	-48.5699	-21.9585	20.3004	-12.8942	-2.49	47.7041	-70.5593	9.89687	23.6623	-55.7835	-4.19201	17.3434	-17.7263	6.62954	38.7197	-71.1451	35.2166	16.185	-50.3537	14.838	11.781	-23.2505	18.9065	86.5195	-73.4012	61.262	101.641	-69.4441	90.7965	116.416	-55.7935	59.0681	
135	1.125	113.106	-9.90067	54.4129	84.835	9.64154	33.6007	52.1539	10.7807	13.1767	28.5612	-4.78721	11.3172	85.2319	-50.2067	-9.78477	57.109	-43.6733	-28.395	36.0629	-16.1117	-20.3317	61.6442	-67.7756	-5.81612	34.4095	-51.293	-22.6711	20.7592	-18.3712	-8.97856	46.3289	-71.777	7.50579	23.1613	-54.2812	-5.95767	15.8044	-24.3344	4.28829	38.1854	-70.3665	33.6418	13.932	-52.4285	13.9352	8.38919	-23.7466	16.9181	82.2019	-73.4359	58.653	102.577	-71.5576	89.5006	114.571	-54.8286	54.4735	
136	1.13333	114.326	-9.00024	56.3895	84.21	5.66366	35.1942	53.5936	8.31325	17.2225	28.9515	-4.321	11.6903	82.2759	-52.986	-6.77238	60.4558	-42.2913	-31.8543	36.8101	-14.0162	-20.7521	62.3778	-68.4129	-4.55358	38.0054	-53.9148	-24.7497	21.2533	-20.3457	-10.3973	46.6827	-73.6537	12.1665	23.929	-58.8636	-5.0399	14.7456	-23.3013	2.56617	38.627	-71.4865	33.0414	14.5077	-54.2306	13.8051	9.83231	-24.6221	12.9439	82.2771	-74.8813	58.5983	98.6055	-71.4504	91.3279	115.15	-57.1474	54.9623	
137	1.14167	114.381	-8.60407	55.2543	83.5979	6.53534	33.552	52.2834	9.67289	13.3747	28.8297	-1.96245	13.671	81.0534	-53.1495	-11.2539	59.2424	-41.7949	-31.3033	39.0851	-14.086	-25.1558	62.5868	-68.2003	-4.70821	35.0123	-50.046	-26.4522	23.1693	-18.0673	-12.7649	44.9589	-74.0312	9.38652	22.7668	-55.4086	-8.13385	16.2676	-21.1067	0.505176	36.9835	-70.3299	30.2692	15.5012	-56.0024	12.5009	4.27733	-25.5764	13.7148	80.4508	-76.0043	61.9162	102.116	-71.7087	86.3134	116.423	-55.165	52.963	
138	1.15	114.163	-9.26532	54.134	84.742	8.33625	33.8002	52.045	11.1657	14.6457	24.8474	-0.848932	10.4259	79.8326	-53.7879	-10.5649	56.8189	-40.9952	-32.1507	37.8166	-15.2664	-23.5326	62.0991	-69.0251	-6.09795	34.1619	-49.9853	-24.9018	19.8377	-21.3027	-11.279	46.4358	-72.0845	12.4719	19.8545	-56.9584	-5.74428	15.1837	-21.792	-1.11419	36.7253	-70.2812	31.4869	15.9137	-55.7635	12.4101	3.75941	-26.4903	9.74785	82.3759	-75.0798	58.0306	98.7125	-73.4865	87.5499	115.811	-55.3494	56.6799	
139	1.15833	112.523	-11.8203	56.7978	83.0394	4.23585	35.1496	51.244	10.3068	16.327	27.4159	-2.13007	15.4696	82.4097	-52.05	-12.3096	56.4238	-40.0468	-31.7874	39.3571	-15.3408	-24.5955	62.6914	-68.8579	-5.20757	32.7585	-51.1705	-23.9914	19.2143	-20.3611	-10.175	47.1511	-70.2458	11.5635	21.737	-58.6045	-4.85331	12.4606	-21.303	0.948469	33.7319	-70.12	33.2692	16.475	-56.6585	13.9182	3.83389	-26.435	8.99708	81.8611	-73.5441	58.5486	99.786	-73.3572	88.315	114.736	-57.0865	56.6393	
140	1.16667	111.743	-13.414	54.4726	84.0063	8.50476	33.8048	52.4632	10.548	19.5961	26.1732	-3.55921	15.4229	82.1461	-52.0321	-8.86176	52.9053	-42.088	-28.7887	37.9084	-12.6848	-24.3004	62.8987	-68.2996	-2.13751	32.8476	-51.6403	-24.2809	17.1014	-19.604	-9.57667	41.9262	-72.8976	13.0127	21.3471	-56.1398	-5.76019	10.1341	-20.6672	3.04364	35.7676	-68.4528	37.0453	16.514	-55.5697	15.1997	4.94556	-22.2316	9.39673	78.3868	-73.9387	64.6082	97.294	-72.011	87.6176	116.293	-55.8843	54.8545	
141	1.175	114.165	-9.97529	56.1603	80.8636	4.75339	34.8451	49.3523	8.65719	16.5361	25.2074	-4.69476	17.854	79.9162	-52.1531	-12.2195	53.2188	-44.1385	-27.6858	35.3472	-15.3895	-21.3027	59.1266	-68.7759	-0.130045	33.6253	-51.5438	-23.7887	18.1865	-18.8684	-10.702	43.1418	-69.1686	9.8371	18.1172	-53.4535	-3.46347	12.235	-21.786	0.565434	32.6377	-68.6914	38.0366	12.9847	-49.7855	15.3589	3.49033	-23.0323	14.639	80.4743	-73.4584	59.8671	97.061	-74.0671	91.2794	111.959	-58.5119	57.2776	
142	1.18333	111.184	-11.7643	52.9998	82.4817	7.67257	34.1148	48.5159	7.01569	17.4325	25.0515	-4.72214	18.7763	77.9735	-53.4332	-8.7308	54.9884	-42.7374	-28.6774	35.7082	-14.7085	-23.6172	58.0422	-68.7388	-2.60787	31.0015	-54.0001	-20.1768	19.1288	-14.6796	-6.37513	39.6157	-70.0398	10.4109	21.113	-54.9805	-4.06421	11.0759	-16.9426	4.80011	31.9047	-67.5989	35.8701	14.4612	-49.9722	16.4971	2.36605	-18.9242	17.8444	80.5617	-72.4093	64.0496	94.0204	-75.978	88.6732	114.652	-58.2886	55.0334	
